<svg width="69" height="22" viewBox="0 0 69 22" fill="none" xmlns="http://www.w3.org/2000/svg">
<g clip-path="url(#clip0_296_4233)">
<path d="M0.5 0H15.2156V7.28567H7.8578L0.5 0ZM0.5 7.28567H7.8578L15.2156 14.5713H0.5V7.28567ZM0.5 14.5713H7.8578V21.857L0.5 14.5713Z" fill="black"/>
<path d="M23.5186 5.74756H29.4669V7.61923H25.77V10.2202H29.4669V12.0506H25.77V15.3809H23.5186V5.74756ZM30.6899 8.74756H32.8164V10.1376C32.9275 9.65989 33.1547 9.29323 33.4974 9.03656C33.8488 8.77023 34.239 8.63756 34.6648 8.63756C34.8873 8.63756 35.0728 8.65622 35.2206 8.69256V10.6469C35.0085 10.6216 34.7951 10.6079 34.5813 10.6056C33.9976 10.6056 33.558 10.7932 33.2611 11.1696C32.9652 11.5366 32.8164 12.0869 32.8164 12.8212V15.3809H30.6909V8.74756H30.6899ZM38.5775 15.5599C37.9292 15.5599 37.3636 15.4082 36.8819 15.1056C36.4093 14.8029 36.0336 14.3732 35.7979 13.8669C35.5478 13.3352 35.4219 12.7336 35.4219 12.0642C35.4219 11.4036 35.5525 10.8069 35.8117 10.2752C36.0548 9.76156 36.4406 9.32723 36.9236 9.02289C37.4141 8.72023 37.975 8.56856 38.6055 8.56856C39.0778 8.56856 39.4999 8.66989 39.8702 8.87156C40.2405 9.07389 40.5186 9.34922 40.704 9.69722V8.74756H42.8164V15.3809H40.704V14.4449C40.5186 14.7752 40.2314 15.0456 39.8423 15.2569C39.4531 15.4612 39.0182 15.5652 38.5775 15.5599ZM39.1892 13.8119C39.6985 13.8119 40.0924 13.6469 40.3704 13.3166C40.6485 12.9862 40.7875 12.5686 40.7875 12.0642C40.7875 11.5689 40.6485 11.1559 40.3704 10.8256C40.0924 10.4952 39.6985 10.3302 39.1892 10.3302C38.7068 10.3302 38.3183 10.4906 38.0217 10.8119C37.7346 11.1332 37.5909 11.5502 37.5909 12.0642C37.5909 12.5782 37.7346 12.9999 38.0217 13.3302C38.3183 13.6516 38.7075 13.8119 39.1892 13.8119ZM44.3037 8.74756H46.4302V9.71089C46.579 9.37089 46.8193 9.09556 47.1526 8.88523C47.496 8.67489 47.8942 8.56856 48.348 8.56856C49.4043 8.56856 50.1042 8.97656 50.4466 9.79356C50.6351 9.42323 50.93 9.11689 51.2945 8.91289C51.6844 8.68056 52.1321 8.56156 52.5869 8.56856C54.1714 8.56856 54.9635 9.46723 54.9635 11.2659V15.3809H52.8232V11.6512C52.8232 11.2022 52.7397 10.8719 52.5731 10.6606C52.4061 10.4499 52.156 10.3439 51.8224 10.3439C51.4612 10.3439 51.1831 10.4679 50.9885 10.7156C50.794 10.9542 50.6967 11.3712 50.6967 11.9679V15.3809H48.5564V11.6376C48.5564 11.1882 48.4732 10.8622 48.3062 10.6606C48.1494 10.4499 47.9033 10.3439 47.5704 10.3439C47.1994 10.3439 46.9166 10.4679 46.722 10.7156C46.5275 10.9542 46.4302 11.3712 46.4302 11.9679V15.3809H44.3043V8.74756H44.3037ZM62.9518 11.7202C62.9518 12.0042 62.933 12.3119 62.8953 12.6422H57.9484C57.9673 13.0736 58.1151 13.4032 58.3931 13.6332C58.6712 13.8622 59.0472 13.9772 59.5188 13.9772C60.177 13.9772 60.594 13.7796 60.7698 13.3852H62.8545C62.7522 14.0369 62.391 14.5639 61.7702 14.9679C61.1589 15.3622 60.4082 15.5599 59.5188 15.5599C58.3702 15.5599 57.4667 15.2522 56.8086 14.6376C56.1602 14.0226 55.8357 13.1652 55.8357 12.0642C55.8357 11.3486 55.9838 10.7292 56.2804 10.2062C56.5669 9.68389 57.0086 9.26122 57.5452 8.99523C58.0922 8.71123 58.7267 8.56856 59.4502 8.56856C60.1352 8.56856 60.7418 8.70156 61.27 8.96789C61.8073 9.23422 62.22 9.60556 62.5068 10.0826C62.8037 10.5602 62.9518 11.1059 62.9518 11.7202ZM60.8522 11.3349C60.8432 10.8946 60.7183 10.5592 60.4769 10.3302C60.2365 10.1012 59.8885 9.98622 59.4347 9.98622C58.9809 9.98622 58.6197 10.1099 58.3507 10.3579C58.0915 10.5966 57.9572 10.9219 57.9474 11.3349H60.8522ZM63.8894 8.74756H66.0159V10.1376C66.127 9.65989 66.3542 9.29323 66.6969 9.03656C67.0295 8.77723 67.4408 8.63656 67.8643 8.63756C68.0865 8.63756 68.2723 8.65622 68.4201 8.69256V10.6469C68.208 10.6216 67.9946 10.6079 67.7808 10.6056C67.1971 10.6056 66.7575 10.7932 66.4606 11.1696C66.1637 11.5366 66.0159 12.0869 66.0159 12.8212V15.3809H63.8894V8.74756Z" fill="black"/>
</g>
<defs>
<clipPath id="clip0_296_4233">
<rect width="68" height="22" fill="white" transform="translate(0.5)"/>
</clipPath>
</defs>
</svg>
