<svg width="24" height="25" viewBox="0 0 24 25" fill="none" xmlns="http://www.w3.org/2000/svg">
<path d="M21.1232 16.0559C20.3094 14.6562 19.8772 12.6472 19.8772 10.25C19.8772 8.16142 19.0475 6.15838 17.5707 4.68153C16.0938 3.20469 14.0908 2.375 12.0022 2.375C9.91364 2.375 7.91061 3.20469 6.43376 4.68153C4.95691 6.15838 4.12722 8.16142 4.12722 10.25C4.12722 12.6481 3.69691 14.6562 2.88316 16.0559C2.71711 16.3414 2.62909 16.6656 2.62794 16.9958C2.62679 17.3261 2.71255 17.6509 2.8766 17.9375C3.03961 18.2243 3.27622 18.4624 3.56199 18.6272C3.84776 18.792 4.17234 18.8775 4.50222 18.875H7.8941C7.98712 19.9003 8.46017 20.8537 9.22031 21.548C9.98045 22.2423 10.9727 22.6273 12.0022 22.6273C13.0317 22.6273 14.024 22.2423 14.7841 21.548C15.5443 20.8537 16.0173 19.9003 16.1103 18.875H19.5022C19.8316 18.877 20.1556 18.7913 20.4409 18.6265C20.7261 18.4617 20.9623 18.2239 21.125 17.9375C21.2898 17.6513 21.3764 17.3267 21.376 16.9965C21.3757 16.6662 21.2885 16.3418 21.1232 16.0559ZM12.0022 20.375C11.57 20.3751 11.151 20.2258 10.8161 19.9525C10.4813 19.6791 10.2512 19.2985 10.1647 18.875H13.8397C13.7533 19.2985 13.5232 19.6791 13.1883 19.9525C12.8535 20.2258 12.4345 20.3751 12.0022 20.375ZM5.1266 16.625C5.95629 14.9375 6.37722 12.7944 6.37722 10.25C6.37722 8.75816 6.96986 7.32742 8.02475 6.27252C9.07964 5.21763 10.5104 4.625 12.0022 4.625C13.4941 4.625 14.9248 5.21763 15.9797 6.27252C17.0346 7.32742 17.6272 8.75816 17.6272 10.25C17.6272 12.7934 18.0472 14.9375 18.8769 16.625H5.1266Z" fill="black"/>
</svg>
