<svg width="24" height="25" viewBox="0 0 24 25" fill="none" xmlns="http://www.w3.org/2000/svg">
<path d="M21.3231 4.23685C21.307 3.96162 21.1905 3.70188 20.9955 3.50694C20.8006 3.312 20.5408 3.19542 20.2656 3.17935C16.5531 2.96091 13.2728 3.39872 10.5156 4.47966C7.87748 5.51372 5.84404 7.11685 4.63279 9.1156C2.98092 11.8447 2.97717 15.1578 4.5906 18.3209L2.95654 19.955C2.85189 20.0596 2.76888 20.1839 2.71225 20.3206C2.65561 20.4573 2.62646 20.6039 2.62646 20.7519C2.62646 20.8998 2.65561 21.0464 2.71225 21.1831C2.76888 21.3198 2.85189 21.4441 2.95654 21.5487C3.16789 21.7601 3.45453 21.8788 3.75342 21.8788C3.90141 21.8788 4.04795 21.8497 4.18468 21.793C4.32141 21.7364 4.44564 21.6534 4.55029 21.5487L6.18435 19.9147C7.75373 20.7153 9.3606 21.1194 10.914 21.1194C12.4923 21.1243 14.0413 20.6927 15.3897 19.8725C17.3884 18.6612 18.9915 16.6268 20.0256 13.9897C21.1037 11.2306 21.5415 7.94935 21.3231 4.23685ZM14.2206 17.945C12.3372 19.0859 10.1275 19.1722 7.87185 18.2187L15.7975 10.2931C15.9021 10.1885 15.9851 10.0642 16.0418 9.92749C16.0984 9.79076 16.1276 9.64422 16.1276 9.49622C16.1276 9.34823 16.0984 9.20169 16.0418 9.06496C15.9851 8.92823 15.9021 8.804 15.7975 8.69935C15.6928 8.5947 15.5686 8.51169 15.4319 8.45506C15.2951 8.39842 15.1486 8.36927 15.0006 8.36927C14.8526 8.36927 14.7061 8.39842 14.5693 8.45506C14.4326 8.51169 14.3084 8.5947 14.2037 8.69935L6.28373 16.6306C5.3331 14.3806 5.41935 12.1653 6.56498 10.2818C8.52529 7.04466 13.1781 5.2456 19.1275 5.38341C19.2569 11.3309 17.4578 15.9847 14.2206 17.945Z" fill="black"/>
</svg>
