<svg width="24" height="25" viewBox="0 0 24 25" fill="none" xmlns="http://www.w3.org/2000/svg">
<g clip-path="url(#clip0_250_4492)">
<path d="M19.5024 7.625H16.8774V5.75C16.8774 4.45707 16.3638 3.21709 15.4496 2.30285C14.5353 1.38861 13.2954 0.875 12.0024 0.875C10.7095 0.875 9.46954 1.38861 8.5553 2.30285C7.64106 3.21709 7.12744 4.45707 7.12744 5.75V7.625H4.50244C4.00516 7.625 3.52825 7.82254 3.17662 8.17417C2.82499 8.52581 2.62744 9.00272 2.62744 9.5V20C2.62744 20.4973 2.82499 20.9742 3.17662 21.3258C3.52825 21.6775 4.00516 21.875 4.50244 21.875H19.5024C19.9997 21.875 20.4766 21.6775 20.8283 21.3258C21.1799 20.9742 21.3774 20.4973 21.3774 20V9.5C21.3774 9.00272 21.1799 8.52581 20.8283 8.17417C20.4766 7.82254 19.9997 7.625 19.5024 7.625ZM9.37744 5.75C9.37744 5.05381 9.654 4.38613 10.1463 3.89384C10.6386 3.40156 11.3062 3.125 12.0024 3.125C12.6986 3.125 13.3663 3.40156 13.8586 3.89384C14.3509 4.38613 14.6274 5.05381 14.6274 5.75V7.625H9.37744V5.75ZM19.1274 19.625H4.87744V9.875H19.1274V19.625ZM13.5024 14.75C13.5024 15.0467 13.4145 15.3367 13.2496 15.5834C13.0848 15.83 12.8506 16.0223 12.5765 16.1358C12.3024 16.2494 12.0008 16.2791 11.7098 16.2212C11.4188 16.1633 11.1516 16.0204 10.9418 15.8107C10.732 15.6009 10.5891 15.3336 10.5313 15.0426C10.4734 14.7517 10.5031 14.4501 10.6166 14.176C10.7302 13.9019 10.9224 13.6676 11.1691 13.5028C11.4158 13.338 11.7058 13.25 12.0024 13.25C12.4003 13.25 12.7818 13.408 13.0631 13.6893C13.3444 13.9706 13.5024 14.3522 13.5024 14.75Z" fill="black"/>
</g>
<defs>
<clipPath id="clip0_250_4492">
<rect width="24" height="24" fill="white" transform="translate(0.00244141 0.5)"/>
</clipPath>
</defs>
</svg>
