<svg width="24" height="25" viewBox="0 0 24 25" fill="none" xmlns="http://www.w3.org/2000/svg">
<path d="M21.4954 8.97499C22.3019 11.1412 22.3429 13.5182 21.6116 15.711C20.8803 17.9038 19.4207 19.7803 17.4754 21.0288C15.5301 22.2773 13.2161 22.8225 10.918 22.574C8.61989 22.3254 6.47602 21.298 4.8426 19.6625C3.00777 17.8337 1.94372 15.3712 1.86941 12.7817C1.79509 10.1922 2.71618 7.67268 4.44311 5.74168C6.17005 3.81068 8.57145 2.61507 11.1532 2.40089C13.7349 2.18672 16.3005 2.97027 18.322 4.5903L20.2064 2.70499C20.311 2.60034 20.4352 2.51733 20.572 2.4607C20.7087 2.40406 20.8552 2.37491 21.0032 2.37491C21.1512 2.37491 21.2978 2.40406 21.4345 2.4607C21.5712 2.51733 21.6955 2.60034 21.8001 2.70499C21.9047 2.80964 21.9878 2.93387 22.0444 3.0706C22.101 3.20733 22.1302 3.35387 22.1302 3.50186C22.1302 3.64986 22.101 3.7964 22.0444 3.93313C21.9878 4.06986 21.9047 4.19409 21.8001 4.29874L12.8001 13.2987C12.6955 13.4034 12.5712 13.4864 12.4345 13.543C12.2978 13.5997 12.1512 13.6288 12.0032 13.6288C11.8552 13.6288 11.7087 13.5997 11.572 13.543C11.4352 13.4864 11.311 13.4034 11.2064 13.2987C11.1017 13.1941 11.0187 13.0699 10.9621 12.9331C10.9054 12.7964 10.8763 12.6499 10.8763 12.5019C10.8763 12.3539 10.9054 12.2073 10.9621 12.0706C11.0187 11.9339 11.1017 11.8096 11.2064 11.705L13.4564 9.45499C12.8222 9.15201 12.1093 9.05457 11.4171 9.17624C10.7249 9.29791 10.088 9.63264 9.59516 10.1337C9.10236 10.6348 8.77826 11.2772 8.66812 11.9713C8.55797 12.6654 8.66726 13.3766 8.98074 14.0057C9.29422 14.6347 9.79625 15.1501 10.4168 15.4801C11.0373 15.8101 11.7453 15.9382 12.4421 15.8464C13.1389 15.7546 13.7897 15.4476 14.3036 14.9682C14.8175 14.4888 15.1689 13.8609 15.3089 13.1722C15.3678 12.8797 15.5405 12.6225 15.789 12.4573C16.0375 12.2922 16.3415 12.2325 16.634 12.2914C16.9265 12.3503 17.1837 12.523 17.3488 12.7716C17.514 13.0201 17.5737 13.324 17.5148 13.6166C17.2752 14.797 16.6629 15.8694 15.7681 16.6758C14.8734 17.4823 13.7434 17.9802 12.5444 18.0963C11.3455 18.2124 10.141 17.9406 9.10809 17.3208C8.07521 16.7011 7.26856 15.7661 6.80685 14.6536C6.34515 13.541 6.25277 12.3096 6.54332 11.1407C6.83388 9.97168 7.49201 8.92685 8.42086 8.15993C9.34971 7.39301 10.5002 6.94451 11.7031 6.88045C12.9059 6.81638 14.0975 7.14013 15.1026 7.80405L16.7179 6.19436C15.2006 5.06116 13.3257 4.51271 11.4368 4.64952C9.54798 4.78633 7.77168 5.59923 6.43348 6.93926C5.09527 8.27928 4.28477 10.0567 4.15053 11.9457C4.01628 13.8347 4.56728 15.7089 5.70253 17.2247C6.83779 18.7405 8.48127 19.7964 10.3318 20.199C12.1823 20.6015 14.1159 20.3237 15.7783 19.4165C17.4406 18.5093 18.7204 17.0334 19.383 15.2593C20.0456 13.4852 20.0467 11.5317 19.386 9.75686C19.3335 9.6181 19.3088 9.47031 19.3136 9.322C19.3184 9.17368 19.3524 9.02778 19.4138 8.89268C19.4752 8.75759 19.5628 8.63598 19.6714 8.53485C19.78 8.43373 19.9075 8.35509 20.0466 8.30346C20.1857 8.25183 20.3337 8.22823 20.482 8.23403C20.6302 8.23982 20.7759 8.2749 20.9106 8.33723C21.0452 8.39956 21.1662 8.48792 21.2666 8.59721C21.367 8.70651 21.4447 8.83458 21.4954 8.97405V8.97499Z" fill="black"/>
</svg>
