<svg width="24" height="25" viewBox="0 0 24 25" fill="none" xmlns="http://www.w3.org/2000/svg">
<path d="M17.6312 7.63598C17.5142 7.57698 17.4012 7.51198 17.2902 7.44098C16.9702 7.23298 16.6762 6.98798 16.4152 6.71098C15.7632 5.97798 15.5192 5.23398 15.4292 4.71298H15.4332C15.3582 4.27998 15.3892 4.00098 15.3942 4.00098H12.4212V15.29C12.4212 15.442 12.4212 15.592 12.4152 15.74C12.4152 15.758 12.4132 15.775 12.4122 15.795C12.4122 15.803 12.4122 15.811 12.4102 15.82V15.826C12.3462 16.649 11.8702 17.386 11.1402 17.794C10.7652 18.003 10.3422 18.113 9.91015 18.113C8.52615 18.113 7.40315 17.003 7.40315 15.634C7.40315 14.264 8.52615 13.155 9.91015 13.155C10.1732 13.154 10.4332 13.195 10.6822 13.275L10.6862 10.302C9.15615 10.108 7.61415 10.551 6.43215 11.524C5.91915 11.962 5.48915 12.483 5.15915 13.066C5.03315 13.279 4.56015 14.132 4.50315 15.518C4.46715 16.305 4.70715 17.12 4.82215 17.456V17.464C4.89415 17.662 5.17315 18.339 5.62915 18.909C5.99615 19.367 6.43015 19.769 6.91615 20.102V20.095L6.92315 20.102C8.36215 21.063 9.95815 21 9.95815 21C10.2342 20.989 11.1592 21 12.2102 20.511C13.3752 19.968 14.0382 19.161 14.0382 19.161C14.4622 18.678 14.7992 18.128 15.0352 17.534C15.3042 16.84 15.3942 16.007 15.3942 15.674V9.68398C15.4302 9.70598 15.9102 10.018 15.9102 10.018C15.9102 10.018 16.6022 10.453 17.6812 10.737C18.4562 10.939 19.4992 10.981 19.4992 10.981V8.08298C19.1332 8.12198 18.3912 8.00798 17.6312 7.63598Z" fill="#808080"/>
</svg>
