<svg width="24" height="25" viewBox="0 0 24 25" fill="none" xmlns="http://www.w3.org/2000/svg">
<path d="M21.9684 7.0175C21.8801 6.67189 21.7109 6.35224 21.4747 6.08491C21.2385 5.81758 20.9421 5.61024 20.61 5.48C17.3962 4.23875 12.2812 4.25 12 4.25C11.7188 4.25 6.60375 4.23875 3.39 5.48C3.0579 5.61024 2.76153 5.81758 2.52534 6.08491C2.28915 6.35224 2.1199 6.67189 2.03156 7.0175C1.78875 7.95313 1.5 9.66313 1.5 12.5C1.5 15.3369 1.78875 17.0469 2.03156 17.9825C2.11977 18.3283 2.28895 18.6481 2.52515 18.9156C2.76136 19.1831 3.0578 19.3906 3.39 19.5209C6.46875 20.7088 11.2875 20.75 11.9381 20.75H12.0619C12.7125 20.75 17.5341 20.7088 20.61 19.5209C20.9422 19.3906 21.2386 19.1831 21.4748 18.9156C21.711 18.6481 21.8802 18.3283 21.9684 17.9825C22.2113 17.045 22.5 15.3369 22.5 12.5C22.5 9.66313 22.2113 7.95313 21.9684 7.0175ZM15.2081 12.8122L10.7081 15.8122C10.6516 15.8499 10.586 15.8715 10.5181 15.8748C10.4503 15.8781 10.3829 15.8629 10.323 15.8309C10.2631 15.7988 10.2131 15.7511 10.1782 15.6928C10.1434 15.6346 10.125 15.5679 10.125 15.5V9.5C10.125 9.4321 10.1434 9.36545 10.1782 9.30718C10.2131 9.24892 10.2631 9.20121 10.323 9.16916C10.3829 9.13711 10.4503 9.12191 10.5181 9.1252C10.586 9.12849 10.6516 9.15013 10.7081 9.18782L15.2081 12.1878C15.2596 12.222 15.3017 12.2685 15.3309 12.3229C15.3601 12.3774 15.3754 12.4382 15.3754 12.5C15.3754 12.5618 15.3601 12.6226 15.3309 12.6771C15.3017 12.7315 15.2596 12.778 15.2081 12.8122Z" fill="#808080"/>
</svg>
