<svg width="24" height="25" viewBox="0 0 24 25" fill="none" xmlns="http://www.w3.org/2000/svg">
<path d="M4 7.5C4 5.843 5.343 4.5 7 4.5H17C18.657 4.5 20 5.843 20 7.5V17.5C20 19.157 18.657 20.5 17 20.5H7C5.343 20.5 4 19.157 4 17.5V7.5ZM8.85 17.893V10.669H6.434V17.893H8.85ZM7.642 9.682C8.484 9.682 9.009 9.128 9.009 8.434C8.993 7.725 8.484 7.186 7.658 7.186C6.831 7.186 6.291 7.725 6.291 8.434C6.291 9.128 6.815 9.682 7.626 9.682H7.642ZM12.604 17.893V13.859C12.604 13.643 12.62 13.428 12.683 13.273C12.858 12.842 13.256 12.395 13.923 12.395C14.798 12.395 15.148 13.057 15.148 14.029V17.893H17.564V13.751C17.564 11.532 16.372 10.499 14.782 10.499C13.5 10.499 12.925 11.199 12.604 11.692V10.669H10.187C10.219 11.344 10.188 17.852 10.187 17.894L12.604 17.893Z" fill="#808080"/>
</svg>
