<svg width="24" height="25" viewBox="0 0 24 25" fill="none" xmlns="http://www.w3.org/2000/svg">
<path d="M12.001 4.5C7.582 4.5 4 8.082 4 12.499C4 15.776 5.97 18.59 8.789 19.827C8.765 19.268 8.784 18.598 8.927 17.991C9.082 17.341 9.957 13.631 9.957 13.631C9.957 13.631 9.702 13.12 9.702 12.365C9.702 11.179 10.389 10.294 11.244 10.294C11.973 10.294 12.323 10.841 12.323 11.495C12.323 12.226 11.857 13.321 11.618 14.334C11.417 15.183 12.043 15.875 12.879 15.875C14.396 15.875 15.417 13.928 15.417 11.622C15.417 9.869 14.236 8.556 12.088 8.556C9.661 8.556 8.15 10.366 8.15 12.387C8.15 13.084 8.354 13.576 8.677 13.956C8.824 14.131 8.845 14.202 8.791 14.402C8.753 14.549 8.665 14.904 8.628 15.044C8.575 15.247 8.411 15.319 8.228 15.245C7.11 14.788 6.59 13.565 6.59 12.188C6.59 9.916 8.507 7.191 12.307 7.191C15.362 7.191 17.373 9.401 17.373 11.773C17.373 14.912 15.627 17.257 13.055 17.257C12.191 17.257 11.379 16.789 11.101 16.259C11.101 16.259 10.636 18.103 10.538 18.458C10.368 19.074 10.036 19.692 9.733 20.172C10.469 20.39 11.233 20.5 12.001 20.5C16.419 20.5 20 16.918 20 12.499C20 8.082 16.419 4.5 12.001 4.5Z" fill="#808080"/>
</svg>
