<svg width="16" height="12" viewBox="0 0 16 12" fill="none" xmlns="http://www.w3.org/2000/svg">
<path d="M15.3366 1.93676L5.73662 11.5368C5.65301 11.6207 5.55365 11.6872 5.44426 11.7327C5.33486 11.7781 5.21757 11.8015 5.09912 11.8015C4.98067 11.8015 4.86338 11.7781 4.75398 11.7327C4.64459 11.6872 4.54523 11.6207 4.46162 11.5368L0.26162 7.33676C0.177902 7.25304 0.111494 7.15366 0.0661858 7.04427C0.0208781 6.93489 -0.00244141 6.81766 -0.00244141 6.69926C-0.00244141 6.58087 0.0208781 6.46363 0.0661858 6.35425C0.111493 6.24487 0.177902 6.14548 0.26162 6.06176C0.345337 5.97804 0.444725 5.91164 0.554107 5.86633C0.66349 5.82102 0.780725 5.7977 0.89912 5.7977C1.01751 5.7977 1.13475 5.82102 1.24413 5.86633C1.35351 5.91164 1.4529 5.97804 1.53662 6.06176L5.09987 9.62501L14.0631 0.663261C14.2322 0.494186 14.4615 0.3992 14.7006 0.3992C14.9397 0.3992 15.169 0.494186 15.3381 0.663261C15.5072 0.832337 15.6022 1.06165 15.6022 1.30076C15.6022 1.53987 15.5072 1.76919 15.3381 1.93826L15.3366 1.93676Z" fill="black"/>
</svg>
