<svg width="16" height="12" viewBox="0 0 16 12" fill="none" xmlns="http://www.w3.org/2000/svg">
<path d="M15.3366 1.93676L5.73662 11.5368C5.65301 11.6207 5.55365 11.6872 5.44426 11.7327C5.33486 11.7781 5.21757 11.8015 5.09912 11.8015C4.98067 11.8015 4.86338 11.7781 4.75398 11.7327C4.64459 11.6872 4.54523 11.6207 4.46162 11.5368L0.26162 7.33676C0.177902 7.25304 0.111494 7.15365 0.0661858 7.04427C0.0208781 6.93489 -0.00244141 6.81765 -0.00244141 6.69926C-0.00244141 6.58086 0.0208781 6.46363 0.0661858 6.35424C0.111493 6.24486 0.177902 6.14547 0.26162 6.06176C0.345337 5.97804 0.444725 5.91163 0.554107 5.86632C0.66349 5.82101 0.780725 5.79769 0.89912 5.79769C1.01751 5.79769 1.13475 5.82101 1.24413 5.86632C1.35351 5.91163 1.4529 5.97804 1.53662 6.06176L5.09987 9.62501L14.0631 0.663256C14.2322 0.49418 14.4615 0.399195 14.7006 0.399195C14.9397 0.399195 15.169 0.49418 15.3381 0.663256C15.5072 0.832331 15.6022 1.06165 15.6022 1.30076C15.6022 1.53986 15.5072 1.76918 15.3381 1.93826L15.3366 1.93676Z" fill="white"/>
</svg>
