<svg width="10" height="9" viewBox="0 0 10 9" fill="none" xmlns="http://www.w3.org/2000/svg">
<path d="M9.8245 4.92439L6.2245 8.52439C6.11178 8.63711 5.95891 8.70043 5.7995 8.70043C5.64009 8.70043 5.48722 8.63711 5.3745 8.52439C5.26178 8.41168 5.19846 8.2588 5.19846 8.09939C5.19846 7.93999 5.26178 7.78711 5.3745 7.67439L7.95 5.09989H0.6C0.44087 5.09989 0.288258 5.03668 0.175736 4.92416C0.0632141 4.81163 0 4.65902 0 4.49989C0 4.34076 0.0632141 4.18815 0.175736 4.07563C0.288258 3.96311 0.44087 3.89989 0.6 3.89989H7.95L5.3755 1.32389C5.26278 1.21118 5.19946 1.0583 5.19946 0.898892C5.19946 0.739486 5.26278 0.586609 5.3755 0.473892C5.48822 0.361175 5.64109 0.297852 5.8005 0.297852C5.95991 0.297852 6.11278 0.361175 6.2255 0.473892L9.8255 4.07389C9.88145 4.12971 9.92581 4.19603 9.95606 4.26904C9.9863 4.34205 10.0018 4.42032 10.0017 4.49935C10.0016 4.57838 9.98593 4.65661 9.95551 4.72955C9.9251 4.80249 9.88058 4.86871 9.8245 4.92439Z" fill="white"/>
</svg>
